:SAMPLES-PER-SECOND 30
:FULLY-SPECIFIED
:DEGREES
385
root  -0.76782 39.245 -4.26523 9.11088 80.1206 14.6345
RightUpLeg  -19.2086 -7.28067 -2.69703
RightLeg  2.63726 -15.5757 5.35832
RightFoot  -1.72793 -0.561383 6.52891
RightToes  0.00048216 0.542163 -0.142577
Spine  13.3271 -0.510063 -4.74183
Spine1  5.44823 -1.55345 1.74714
HEad  5.77 -3.2666 1.97007
LeftShoulder1  6.4829 -10.8701 -38.912
LeftArm  -16.8028 5.60086 -20.6759
LeftForeArm  7.62114 -5.91888 -3.70681
LeftHand  -0.25398 0.0180481 5.50724
RightShoulder  3.33857 6.37047 27.7965
RightArm  -1.37961 -14.9879 27.7751
RightForeArm  4.26401 20.1433 4.86603
RightHand  -1.33317 3.50872 -17.5889
LeftUpLeg  12.895 7.34624 -3.6407
LeftLeg  12.6378 19.4063 -1.51275
LeftFoot  -21.125 -0.0309929 -1.84353
LeftToes  1.06244e-005 4.65856e-005 -8.18505e-006
386
root  0.098066 38.9848 -4.23025 14.5408 81.0255 20.3602
RightUpLeg  -19.7854 -7.68917 -3.01407
RightLeg  2.65081 -14.7087 5.2503
RightFoot  -1.20491 -0.583267 6.4761
RightToes  0.00048216 0.542163 -0.142577
Spine  13.7151 -1.03444 -5.2644
Spine1  6.27589 -2.30106 2.08014
HEad  4.16467 -3.21576 2.1543
LeftShoulder1  7.36986 -11.781 -41.85
LeftArm  -14.0399 1.46594 -23.9262
LeftForeArm  11.5661 -4.61803 -4.78208
LeftHand  -0.25398 0.0180481 5.50724
RightShoulder  3.51884 6.61446 28.7891
RightArm  -3.20151 -17.0823 32.8931
RightForeArm  7.46015 17.6476 5.21571
RightHand  -1.26291 3.32501 -17.0149
LeftUpLeg  14.5646 7.44932 -4.06261
LeftLeg  12.8406 18.2565 -1.66972
LeftFoot  -22.2744 -0.0545788 -1.96846
LeftToes  1.06244e-005 4.65856e-005 -8.18505e-006
387
root  1.11203 38.7035 -4.18154 19.2574 82.1646 25.3409
RightUpLeg  -20.6679 -10.6899 -2.07995
RightLeg  6.08925 -11.2301 3.87547
RightFoot  -1.32508 -0.604302 6.76689
RightToes  0.00048216 0.542163 -0.142577
Spine  14.0933 -1.78225 -5.50817
Spine1  6.90844 -3.36089 2.76925
HEad  2.36155 -2.78997 2.00066
LeftShoulder1  8.11999 -12.4634 -44.2865
LeftArm  -10.226 -1.84471 -27.2139
LeftForeArm  18.3428 -5.47572 -6.24673
LeftHand  -0.25398 0.0180481 5.50724
RightShoulder  3.62116 6.78111 29.2296
RightArm  -5.75713 -19.5121 38.0139
RightForeArm  10.6607 15.7082 5.47688
RightHand  -1.12347 2.77353 -16.1487
LeftUpLeg  16.468 7.59369 -4.01845
LeftLeg  13.1522 16.8844 -1.57411
LeftFoot  -23.5373 -0.0838593 -2.10475
LeftToes  1.06244e-005 4.65856e-005 -8.18505e-006
388
root  2.24978 38.4643 -4.10103 24.2659 83.9369 30.1731
RightUpLeg  -21.7876 -15.8135 0.175475
RightLeg  10.4289 -7.09731 1.96042
RightFoot  -0.925818 -0.485649 5.28635
RightToes  0.00048216 0.542163 -0.142577
Spine  14.1193 -2.87888 -5.62387
Spine1  7.37512 -4.98942 4.34946
HEad  0.309479 -1.59777 1.39752
LeftShoulder1  8.64058 -12.8989 -45.9417
LeftArm  -3.89648 -4.28871 -30.7138
LeftForeArm  26.9401 -8.50707 -7.79101
LeftHand  -0.25398 0.0180481 5.50724
RightShoulder  3.67855 6.88819 29.4229
RightArm  -7.03649 -22.155 42.359
RightForeArm  12.7834 14.6728 5.65517
RightHand  -0.8858 1.65729 -14.7177
LeftUpLeg  18.2109 7.85191 -3.23145
LeftLeg  13.2325 14.6171 -1.32454
LeftFoot  -24.6257 -0.141912 -2.48795
LeftToes  1.06244e-005 4.65856e-005 -8.18505e-006
389
root  3.47334 38.3158 -3.98524 26.6973 85.9957 31.9221
RightUpLeg  -23.3377 -20.0775 2.97091
RightLeg  14.2737 -5.01614 -0.010734
RightFoot  1.01058 -0.0718727 0.819415
RightToes  0.00048216 0.542163 -0.142577
Spine  14.06 -4.07686 -5.38961
Spine1  7.29888 -6.8454 6.71288
HEad  -1.97583 0.405186 0.358787
LeftShoulder1  8.88428 -13.1137 -46.6452
LeftArm  8.75096 -5.75028 -34.8384
LeftForeArm  30.7295 -14.0823 -7.48074
LeftHand  -0.25398 0.0180481 5.50724
RightShoulder  3.71488 6.94501 29.5811
RightArm  -6.12985 -24.9814 45.2897
RightForeArm  14.3702 14.6935 5.79764
RightHand  -0.662856 0.55382 -13.0159
LeftUpLeg  19.5986 8.32975 -1.60432
LeftLeg  13.0882 11.8423 -0.955844
LeftFoot  -24.9563 -0.209272 -3.00677
LeftToes  1.06244e-005 4.65856e-005 -8.18505e-006
